<svg xmlns="http://www.w3.org/2000/svg" width="700" height="700" viewBox="0 0 700 700"><rect width="100%" height="100%" fill="#DDDDDD"/><path fill="#999999" d="M151.22 349.565h-5.84v12.22h-6.13v-30.57h11.53q5.23 0 8.18 2.38 2.95 2.39 2.95 6.65 0 2.37-1.24 4.07-1.24 1.7-3.63 2.75 2.71.8 3.89 2.67 1.19 1.87 1.19 4.62v2.24q0 1.28.34 2.68.35 1.4 1.19 2.07v.44h-6.32q-.84-.67-1.09-2.25-.25-1.57-.25-2.98v-2.16q0-2.29-1.25-3.56t-3.52-1.27Zm-5.84-13.63v8.91h5.3q2.58 0 3.85-1.1 1.27-1.09 1.27-3.23 0-2.1-1.27-3.34-1.27-1.24-3.75-1.24h-5.4Zm31.86 26.29q-4.92 0-7.86-3.15-2.94-3.15-2.94-8v-.84q0-5.06 2.79-8.33 2.78-3.28 7.46-3.26 4.6 0 7.14 2.77 2.54 2.78 2.54 7.5v3.34h-13.56l-.05.12q.17 2.25 1.5 3.7 1.34 1.45 3.63 1.45 2.03 0 3.38-.41 1.34-.41 2.94-1.29l1.65 3.78q-1.38 1.13-3.63 1.88-2.24.74-4.99.74Zm-.55-18.85q-1.7 0-2.69 1.3-.98 1.3-1.22 3.42l.07.11h7.51v-.55q0-1.95-.91-3.12-.91-1.16-2.76-1.16Zm22.78 14.15q1.64 0 2.62-.96.99-.95.99-2.55h5.57l.06.13q.08 3.44-2.59 5.76-2.68 2.32-6.65 2.32-5.08 0-7.83-3.21t-2.75-8.25v-.63q0-5.02 2.74-8.25 2.74-3.24 7.82-3.24 4.2 0 6.77 2.4 2.57 2.39 2.49 6.29l-.04.13h-5.59q0-1.76-.96-2.93-.97-1.16-2.67-1.16-2.44 0-3.43 1.89-1 1.89-1 4.87v.63q0 3.04 1 4.9.99 1.86 3.45 1.86Zm19.17-18.46v22.72h-6.13v-22.72h6.13Zm0-10.03v4.59h-6.13v-4.59h6.13Zm25.53 21.58v.44q0 5.04-2.33 8.11-2.33 3.06-6.51 3.06-1.78 0-3.17-.66-1.38-.66-2.37-1.94v10.89h-6.11v-31.45h5.52l.36 2.69q1.01-1.49 2.42-2.3 1.42-.81 3.31-.81 4.22 0 6.55 3.3t2.33 8.67Zm-6.13.44v-.44q0-3.21-1.07-5.21-1.07-1.99-3.28-1.99-1.38 0-2.36.57-.97.56-1.54 1.61v9.95q.57.97 1.54 1.47.98.51 2.41.51 2.22 0 3.26-1.74 1.04-1.75 1.04-4.73Zm19.97 11.17q-4.92 0-7.85-3.15-2.94-3.15-2.94-8v-.84q0-5.06 2.78-8.33 2.78-3.28 7.46-3.26 4.6 0 7.14 2.77 2.54 2.78 2.54 7.5v3.34h-13.56l-.04.12q.16 2.25 1.5 3.7 1.33 1.45 3.62 1.45 2.04 0 3.38-.41 1.34-.41 2.94-1.29l1.66 3.78q-1.39 1.13-3.64 1.88-2.24.74-4.99.74Zm-.55-18.85q-1.7 0-2.69 1.3-.98 1.3-1.21 3.42l.06.11h7.52v-.55q0-1.95-.92-3.12-.91-1.16-2.76-1.16Zm30.97-12.16v30.57h-6.13v-30.57h6.13Zm5.61 7.85h5.69l.25 3q1.09-1.63 2.74-2.53 1.65-.89 3.81-.89 2.18 0 3.74.97 1.55.96 2.35 2.92 1.05-1.83 2.73-2.86 1.68-1.03 3.95-1.03 3.35 0 5.3 2.32 1.94 2.32 1.94 7.07v13.75h-6.13v-13.77q0-2.59-.84-3.59-.84-1.01-2.5-1.01-1.3 0-2.26.58-.95.57-1.52 1.6 0 .4.02.68.02.29.02.58v14.93h-6.11v-13.77q0-2.52-.84-3.56t-2.52-1.04q-1.24 0-2.17.47-.93.47-1.54 1.33v16.57h-6.11v-22.72Zm56.67 22.72h-6.14q-.33-.78-.57-1.64-.24-.86-.35-1.76-.94 1.66-2.49 2.75-1.54 1.09-3.68 1.09-3.57 0-5.5-1.84-1.93-1.83-1.93-5 0-3.34 2.57-5.18 2.57-1.84 7.5-1.84h3.43v-1.8q0-1.64-.87-2.54-.86-.91-2.54-.91-1.49 0-2.29.73-.81.72-.81 2l-5.92-.02-.03-.12q-.14-2.88 2.5-4.97 2.65-2.09 6.95-2.09 4.08 0 6.62 2.07t2.54 5.89v9.39q0 1.59.24 3 .24 1.4.77 2.79Zm-11.74-4.09q1.62 0 2.87-.8 1.26-.8 1.71-1.85v-3.21h-3.43q-1.95 0-2.96.97-1 .98-1 2.37 0 1.13.75 1.82.76.7 2.06.7Zm14.42-6.64v-.44q0-5.37 2.34-8.67t6.57-3.3q1.91 0 3.35.86 1.45.86 2.48 2.46l.48-2.9h5.3v22.62q0 4.43-2.91 6.85-2.91 2.43-8.1 2.43-1.72 0-3.65-.48-1.93-.47-3.57-1.29l1.14-4.58q1.4.68 2.86 1.02 1.46.35 3.18.35 2.52 0 3.71-1.05 1.18-1.05 1.18-3.28v-2.05q-1 1.28-2.37 1.95-1.36.67-3.13.67-4.18 0-6.52-3.08-2.34-3.07-2.34-8.09Zm6.13-.44v.44q0 2.98 1.01 4.69 1.01 1.71 3.28 1.71 1.4 0 2.38-.51t1.56-1.5v-9.87q-.58-1.03-1.56-1.59-.98-.57-2.34-.57-2.25 0-3.29 1.99-1.04 2-1.04 5.21Zm29.15 11.61q-4.92 0-7.86-3.15-2.94-3.15-2.94-8v-.84q0-5.06 2.79-8.33 2.78-3.28 7.46-3.26 4.6 0 7.14 2.77 2.54 2.78 2.54 7.5v3.34h-13.56l-.05.12q.17 2.25 1.51 3.7 1.33 1.45 3.62 1.45 2.03 0 3.38-.41 1.34-.41 2.94-1.29l1.66 3.78q-1.39 1.13-3.64 1.88-2.24.74-4.99.74Zm-.55-18.85q-1.7 0-2.69 1.3-.98 1.3-1.21 3.42l.06.11h7.51v-.55q0-1.95-.91-3.12-.91-1.16-2.76-1.16Zm24.46-12.16h8l7.79 22.53h.13l7.85-22.53h8.02v30.57h-6.13v-9.11l.59-13.5-.13-.02-8.19 22.63h-4.11l-8.15-22.55-.13.02.59 13.42v9.11h-6.13v-30.57Zm43.46 7.85v22.72h-6.13v-22.72h6.13Zm0-10.03v4.59h-6.13v-4.59h6.13Zm17.32 26.49q0-1-.97-1.74-.98-.73-3.62-1.3-4.03-.82-6.08-2.43-2.05-1.6-2.05-4.37 0-2.94 2.47-4.99 2.46-2.05 6.6-2.05 4.35 0 6.92 2.04 2.57 2.04 2.47 5.14l-.05.13h-5.92q0-1.37-.87-2.23-.87-.86-2.55-.86-1.49 0-2.34.73-.85.72-.85 1.81 0 1.05.89 1.72.89.68 3.62 1.2 4.2.84 6.24 2.47 2.04 1.63 2.04 4.48 0 3.07-2.63 5.01-2.62 1.94-6.93 1.94-4.53 0-7.17-2.3-2.63-2.3-2.51-5.24l.05-.12h5.6q.06 1.82 1.2 2.64 1.13.82 2.96.82 1.7 0 2.59-.67.89-.67.89-1.83Zm22.18 0q0-1-.98-1.74-.98-.73-3.62-1.3-4.03-.82-6.08-2.43-2.05-1.6-2.05-4.37 0-2.94 2.47-4.99 2.47-2.05 6.6-2.05 4.35 0 6.92 2.04 2.57 2.04 2.47 5.14l-.04.13h-5.92q0-1.37-.88-2.23-.87-.86-2.55-.86-1.49 0-2.34.73-.85.72-.85 1.81 0 1.05.89 1.72.9.68 3.63 1.2 4.2.84 6.23 2.47 2.04 1.63 2.04 4.48 0 3.07-2.63 5.01-2.62 1.94-6.92 1.94-4.54 0-7.18-2.3-2.63-2.3-2.5-5.24l.04-.12h5.6q.07 1.82 1.2 2.64 1.13.82 2.96.82 1.7 0 2.59-.67.9-.67.9-1.83Zm16.33-16.46v22.72h-6.13v-22.72h6.13Zm0-10.03v4.59h-6.13v-4.59h6.13Zm4.94 10.03h5.71l.27 3.26q1.13-1.75 2.79-2.71 1.66-.97 3.72-.97 3.44 0 5.37 2.16 1.93 2.17 1.93 6.79v14.19h-6.15v-14.17q0-2.29-.92-3.25-.92-.95-2.79-.95-1.22 0-2.19.49-.96.5-1.61 1.4v16.48h-6.13v-22.72Zm23.43 11.99v-.44q0-5.37 2.34-8.67t6.56-3.3q1.91 0 3.36.86t2.48 2.46l.48-2.9h5.29v22.62q0 4.43-2.91 6.85-2.91 2.43-8.09 2.43-1.72 0-3.66-.48-1.93-.47-3.56-1.29l1.13-4.58q1.41.68 2.87 1.02 1.45.35 3.18.35 2.52 0 3.7-1.05 1.19-1.05 1.19-3.28v-2.05q-1.01 1.28-2.37 1.95-1.37.67-3.13.67-4.18 0-6.52-3.08-2.34-3.07-2.34-8.09Zm6.13-.44v.44q0 2.98 1.01 4.69 1 1.71 3.27 1.71 1.41 0 2.38-.51.98-.51 1.57-1.5v-9.87q-.59-1.03-1.57-1.59-.97-.57-2.34-.57-2.24 0-3.28 1.99-1.04 2-1.04 5.21Z"/></svg>